<svg width="4088" height="4088" viewBox="0 0 4088 4088" fill="none" xmlns="http://www.w3.org/2000/svg">
<g opacity="0.5">
<path d="M3655.41 2905.95L994.963 3570.42C735.408 3634.72 497.482 3484.68 432.593 3227.46L21.6298 1619.87C-43.2591 1362.66 108.148 1126.88 367.704 1062.57L3028.15 398.102C3287.7 333.798 3525.63 483.84 3590.52 741.055L4001.48 2348.65C4044.74 2584.43 3893.33 2841.64 3655.41 2905.95Z" fill="#494949"/>
<g filter="url(#filter0_bi_5969_4182)">
<path d="M3611.37 3570.42H859.884C599.902 3570.42 383.25 3359.26 383.25 3105.87V1479.96C383.25 1226.57 599.902 1015.42 859.884 1015.42H3611.37C3871.35 1015.42 4088 1226.57 4088 1479.96V3126.99C4066.33 3380.38 3871.35 3570.42 3611.37 3570.42Z" fill="#F1F1F1" fill-opacity="0.1"/>
<path d="M3611.37 3570.42H859.884C599.902 3570.42 383.25 3359.26 383.25 3105.87V1479.96C383.25 1226.57 599.902 1015.42 859.884 1015.42H3611.37C3871.35 1015.42 4088 1226.57 4088 1479.96V3126.99C4066.33 3380.38 3871.35 3570.42 3611.37 3570.42Z" fill="url(#paint0_linear_5969_4182)" fill-opacity="0.8"/>
<path d="M3611.37 3570.12H859.884C600.06 3570.12 383.55 3359.09 383.55 3105.87V1479.96C383.55 1226.75 600.06 1015.72 859.884 1015.72H3611.37C3871.19 1015.72 4087.7 1226.75 4087.7 1479.96V3126.97C4066.04 3380.21 3871.18 3570.12 3611.37 3570.12Z" stroke="url(#paint1_linear_5969_4182)" stroke-opacity="0.1" stroke-width="0.6"/>
</g>
<g filter="url(#filter1_b_5969_4182)">
<path d="M3805.81 1577H714.775C714.223 1577 713.775 1577.45 713.775 1578V2069C713.775 2069.55 714.223 2070 714.775 2070H3805.81C3806.36 2070 3806.81 2069.55 3806.81 2069V1578C3806.81 1577.45 3806.36 1577 3805.81 1577Z" fill="url(#paint2_linear_5969_4182)"/>
<path d="M714.775 1577.12H3805.81C3806.3 1577.12 3806.7 1577.52 3806.7 1578V2069C3806.7 2069.49 3806.3 2069.88 3805.81 2069.88H714.775C714.287 2069.88 713.892 2069.49 713.892 2069V1578C713.892 1577.52 714.287 1577.12 714.775 1577.12Z" stroke="url(#paint3_linear_5969_4182)" stroke-opacity="0.5" stroke-width="0.232917"/>
</g>
<g filter="url(#filter2_bd_5969_4182)">
<path d="M3677.03 2820.21H3222.81C3157.92 2820.21 3093.03 2755.91 3093.03 2691.6C3093.03 2627.3 3157.92 2563 3222.81 2563H3677.03C3741.92 2563 3806.81 2627.3 3806.81 2691.6C3806.81 2755.91 3741.92 2820.21 3677.03 2820.21Z" fill="url(#paint4_linear_5969_4182)"/>
<path d="M3677.03 2820.09H3222.81C3190.4 2820.09 3157.99 2804.04 3133.67 2779.94C3109.35 2755.84 3093.15 2723.72 3093.15 2691.6C3093.15 2659.49 3109.35 2627.37 3133.67 2603.27C3157.99 2579.17 3190.4 2563.11 3222.81 2563.11H3677.03C3709.44 2563.11 3741.86 2579.17 3766.17 2603.27C3790.49 2627.37 3806.69 2659.49 3806.69 2691.6C3806.69 2723.72 3790.49 2755.84 3766.17 2779.94C3741.86 2804.04 3709.44 2820.09 3677.03 2820.09Z" stroke="url(#paint5_linear_5969_4182)" stroke-opacity="0.5" stroke-width="0.232917"/>
</g>
<g filter="url(#filter3_bd_5969_4182)">
<path d="M2768.59 2820.21H2033.19C1968.3 2820.21 1903.41 2755.91 1903.41 2691.6C1903.41 2627.3 1968.3 2563 2033.19 2563H2768.59C2833.48 2563 2898.37 2627.3 2898.37 2691.6C2898.37 2755.91 2855.11 2820.21 2768.59 2820.21Z" fill="url(#paint6_linear_5969_4182)"/>
<path d="M2768.59 2820.09H2033.19C2000.78 2820.09 1968.36 2804.04 1944.05 2779.94C1919.73 2755.84 1903.52 2723.72 1903.52 2691.6C1903.52 2659.49 1919.73 2627.37 1944.05 2603.27C1968.36 2579.17 2000.78 2563.11 2033.19 2563.11H2768.59C2801 2563.11 2833.42 2579.17 2857.73 2603.27C2882.05 2627.37 2898.25 2659.49 2898.25 2691.6C2898.25 2723.73 2887.45 2755.85 2865.84 2779.94C2844.23 2804.03 2811.82 2820.09 2768.59 2820.09Z" stroke="url(#paint7_linear_5969_4182)" stroke-opacity="0.5" stroke-width="0.232917"/>
</g>
</g>
<defs>
<filter id="filter0_bi_5969_4182" x="373.5" y="1005.67" width="3724.25" height="2574.5" filterUnits="userSpaceOnUse" color-interpolation-filters="sRGB">
<feFlood flood-opacity="0" result="BackgroundImageFix"/>
<feGaussianBlur in="BackgroundImageFix" stdDeviation="4.875"/>
<feComposite in2="SourceAlpha" operator="in" result="effect1_backgroundBlur_5969_4182"/>
<feBlend mode="normal" in="SourceGraphic" in2="effect1_backgroundBlur_5969_4182" result="shape"/>
<feColorMatrix in="SourceAlpha" type="matrix" values="0 0 0 0 0 0 0 0 0 0 0 0 0 0 0 0 0 0 127 0" result="hardAlpha"/>
<feOffset dy="1.625"/>
<feGaussianBlur stdDeviation="3.25"/>
<feComposite in2="hardAlpha" operator="arithmetic" k2="-1" k3="1"/>
<feColorMatrix type="matrix" values="0 0 0 0 1 0 0 0 0 1 0 0 0 0 1 0 0 0 0.4 0"/>
<feBlend mode="normal" in2="shape" result="effect2_innerShadow_5969_4182"/>
</filter>
<filter id="filter1_b_5969_4182" x="696.307" y="1559.54" width="3127.97" height="527.934" filterUnits="userSpaceOnUse" color-interpolation-filters="sRGB">
<feFlood flood-opacity="0" result="BackgroundImageFix"/>
<feGaussianBlur in="BackgroundImageFix" stdDeviation="8.73438"/>
<feComposite in2="SourceAlpha" operator="in" result="effect1_backgroundBlur_5969_4182"/>
<feBlend mode="normal" in="SourceGraphic" in2="effect1_backgroundBlur_5969_4182" result="shape"/>
</filter>
<filter id="filter2_bd_5969_4182" x="3075.56" y="2545.53" width="748.715" height="292.152" filterUnits="userSpaceOnUse" color-interpolation-filters="sRGB">
<feFlood flood-opacity="0" result="BackgroundImageFix"/>
<feGaussianBlur in="BackgroundImageFix" stdDeviation="8.73438"/>
<feComposite in2="SourceAlpha" operator="in" result="effect1_backgroundBlur_5969_4182"/>
<feColorMatrix in="SourceAlpha" type="matrix" values="0 0 0 0 0 0 0 0 0 0 0 0 0 0 0 0 0 0 127 0" result="hardAlpha"/>
<feOffset dx="5.82292" dy="2.32917"/>
<feGaussianBlur stdDeviation="2.91146"/>
<feColorMatrix type="matrix" values="0 0 0 0 0.15375 0 0 0 0 0.522433 0 0 0 0 0.9 0 0 0 0.4 0"/>
<feBlend mode="normal" in2="effect1_backgroundBlur_5969_4182" result="effect2_dropShadow_5969_4182"/>
<feBlend mode="normal" in="SourceGraphic" in2="effect2_dropShadow_5969_4182" result="shape"/>
</filter>
<filter id="filter3_bd_5969_4182" x="1885.94" y="2545.53" width="1029.9" height="292.152" filterUnits="userSpaceOnUse" color-interpolation-filters="sRGB">
<feFlood flood-opacity="0" result="BackgroundImageFix"/>
<feGaussianBlur in="BackgroundImageFix" stdDeviation="8.73438"/>
<feComposite in2="SourceAlpha" operator="in" result="effect1_backgroundBlur_5969_4182"/>
<feColorMatrix in="SourceAlpha" type="matrix" values="0 0 0 0 0 0 0 0 0 0 0 0 0 0 0 0 0 0 127 0" result="hardAlpha"/>
<feOffset dx="5.82292" dy="2.32917"/>
<feGaussianBlur stdDeviation="2.91146"/>
<feColorMatrix type="matrix" values="0 0 0 0 0.15375 0 0 0 0 0.522433 0 0 0 0 0.9 0 0 0 0.4 0"/>
<feBlend mode="normal" in2="effect1_backgroundBlur_5969_4182" result="effect2_dropShadow_5969_4182"/>
<feBlend mode="normal" in="SourceGraphic" in2="effect2_dropShadow_5969_4182" result="shape"/>
</filter>
<linearGradient id="paint0_linear_5969_4182" x1="383.25" y1="1006.25" x2="3980.32" y2="3680.86" gradientUnits="userSpaceOnUse">
<stop stop-color="#A1A1A1"/>
<stop offset="1"/>
</linearGradient>
<linearGradient id="paint1_linear_5969_4182" x1="499.023" y1="1131.55" x2="4088" y2="1131.55" gradientUnits="userSpaceOnUse">
<stop stop-color="#FFA3DB"/>
<stop offset="1" stop-color="#C082ED"/>
</linearGradient>
<linearGradient id="paint2_linear_5969_4182" x1="3587.52" y1="1666.03" x2="277.032" y2="2343.22" gradientUnits="userSpaceOnUse">
<stop stop-color="white"/>
<stop offset="1" stop-color="white" stop-opacity="0.2"/>
</linearGradient>
<linearGradient id="paint3_linear_5969_4182" x1="1046.96" y1="1742.38" x2="3670.31" y2="1833.24" gradientUnits="userSpaceOnUse">
<stop stop-color="white"/>
<stop offset="1" stop-color="white" stop-opacity="0"/>
</linearGradient>
<linearGradient id="paint4_linear_5969_4182" x1="3756.2" y1="2609.44" x2="2966.74" y2="2680.87" gradientUnits="userSpaceOnUse">
<stop stop-color="white"/>
<stop offset="1" stop-color="white" stop-opacity="0.2"/>
</linearGradient>
<linearGradient id="paint5_linear_5969_4182" x1="3169.92" y1="2649.28" x2="3775.9" y2="2658.56" gradientUnits="userSpaceOnUse">
<stop stop-color="white"/>
<stop offset="1" stop-color="white" stop-opacity="0"/>
</linearGradient>
<linearGradient id="paint6_linear_5969_4182" x1="2827.83" y1="2609.44" x2="1735.73" y2="2747.18" gradientUnits="userSpaceOnUse">
<stop stop-color="white"/>
<stop offset="1" stop-color="white" stop-opacity="0.2"/>
</linearGradient>
<linearGradient id="paint7_linear_5969_4182" x1="2010.59" y1="2649.28" x2="2855.09" y2="2667.31" gradientUnits="userSpaceOnUse">
<stop stop-color="white"/>
<stop offset="1" stop-color="white" stop-opacity="0"/>
</linearGradient>
</defs>
</svg>
