<svg width="4088" height="4088" viewBox="0 0 4088 4088" fill="none" xmlns="http://www.w3.org/2000/svg">
<g clip-path="url(#clip0_5969_4162)">
<path d="M3728.8 383.25H870.204C671.821 383.25 511 544.5 511 743.412V2961.34C511 3160.25 671.821 3321.5 870.204 3321.5H3728.8C3927.18 3321.5 4088 3160.25 4088 2961.34V743.412C4088 544.5 3927.18 383.25 3728.8 383.25Z" fill="#FFB831"/>
<g filter="url(#filter0_bi_5969_4162)">
<path d="M3568.71 824.474H2486.08C2443.71 824.428 2401.97 814.251 2364.41 794.801C2326.85 775.352 2294.58 747.204 2270.32 712.748L2119.48 494.977C2095.34 460.406 2063.09 432.173 2025.5 412.71C1987.92 393.246 1946.12 383.137 1903.72 383.251H259.739C190.362 383.251 123.824 410.583 74.7673 459.236C25.7104 507.89 -1.85181 573.877 -1.85181 642.683V3189.67C-1.85181 3325.78 52.6686 3456.31 149.708 3552.55C246.748 3648.79 378.362 3702.86 515.597 3702.86H3570.62C3707.85 3702.86 3839.47 3648.79 3936.51 3552.55C4033.55 3456.31 4088.06 3325.78 4088.06 3189.67V1337.66C4088.06 1270.11 4074.61 1203.22 4048.49 1140.84C4022.37 1078.45 3984.08 1021.79 3935.83 974.113C3887.58 926.435 3830.31 888.672 3767.31 862.994C3704.31 837.316 3636.82 824.225 3568.71 824.474Z" fill="#F1F1F1" fill-opacity="0.2"/>
<path d="M3568.71 824.474H2486.08C2443.71 824.428 2401.97 814.251 2364.41 794.801C2326.85 775.352 2294.58 747.204 2270.32 712.748L2119.48 494.977C2095.34 460.406 2063.09 432.173 2025.5 412.71C1987.92 393.246 1946.12 383.137 1903.72 383.251H259.739C190.362 383.251 123.824 410.583 74.7673 459.236C25.7104 507.89 -1.85181 573.877 -1.85181 642.683V3189.67C-1.85181 3325.78 52.6686 3456.31 149.708 3552.55C246.748 3648.79 378.362 3702.86 515.597 3702.86H3570.62C3707.85 3702.86 3839.47 3648.79 3936.51 3552.55C4033.55 3456.31 4088.06 3325.78 4088.06 3189.67V1337.66C4088.06 1270.11 4074.61 1203.22 4048.49 1140.84C4022.37 1078.45 3984.08 1021.79 3935.83 974.113C3887.58 926.435 3830.31 888.672 3767.31 862.994C3704.31 837.316 3636.82 824.225 3568.71 824.474Z" fill="url(#paint0_linear_5969_4162)" fill-opacity="0.8"/>
<path d="M2270.08 712.919L2270.08 712.921C2294.36 747.416 2326.67 775.596 2364.28 795.068C2401.88 814.54 2443.66 824.728 2486.08 824.774H3568.71C3636.78 824.525 3704.23 837.608 3767.19 863.272C3830.16 888.935 3887.4 926.676 3935.62 974.326C3983.84 1021.98 4022.1 1078.6 4048.21 1140.95C4074.32 1203.3 4087.76 1270.15 4087.76 1337.66V3189.67C4087.76 3325.7 4033.28 3456.15 3936.3 3552.33C3839.31 3648.52 3707.77 3702.56 3570.62 3702.56H515.597C378.441 3702.56 246.903 3648.52 149.919 3552.33C52.9364 3456.15 -1.55181 3325.7 -1.55181 3189.67V642.683C-1.55181 573.957 25.9781 508.047 74.9785 459.449C123.979 410.852 190.441 383.551 259.739 383.551L1903.72 383.551V383.251L1903.72 383.551C1946.07 383.437 1987.82 393.535 2025.37 412.976C2062.91 432.417 2095.12 460.617 2119.24 495.148L2270.08 712.919Z" stroke="url(#paint1_linear_5969_4162)" stroke-opacity="0.1" stroke-width="0.6"/>
</g>
<g filter="url(#filter1_bd_5969_4162)">
<path d="M866.86 1663.37C866.861 1591.76 888.299 1521.75 928.457 1462.23C968.615 1402.71 1025.68 1356.35 1092.43 1329.03C1159.18 1301.72 1232.61 1294.66 1303.41 1308.77C1374.2 1322.88 1439.18 1357.52 1490.1 1408.29C1541.03 1459.07 1575.62 1523.69 1589.47 1593.98C1603.33 1664.26 1595.83 1737.05 1567.93 1803.1C1540.04 1869.16 1493 1925.51 1432.77 1965.03C1372.55 2004.54 1301.85 2025.44 1229.64 2025.06C1133.25 2024.56 1040.98 1986.23 972.999 1918.46C905.018 1850.68 866.859 1758.97 866.86 1663.37ZM1229.64 2159.51C1086.08 2159.28 946.771 2207.83 834.905 2297.06C723.039 2386.3 645.365 2510.85 614.819 2649.97C611.439 2666.11 611.696 2682.78 615.577 2698.81C619.458 2714.83 626.869 2729.8 637.271 2742.65C647.673 2755.5 660.812 2765.91 675.746 2773.13C690.681 2780.35 707.042 2784.21 723.656 2784.42H1735.63C1752.29 2784.15 1768.7 2780.28 1783.7 2773.07C1798.7 2765.87 1811.94 2755.5 1822.48 2742.7C1833.03 2729.9 1840.62 2714.97 1844.75 2698.96C1848.88 2682.94 1849.43 2666.22 1846.38 2649.97C1815.12 2510.86 1736.98 2386.47 1624.87 2297.31C1512.75 2208.15 1373.35 2159.54 1229.64 2159.51Z" fill="url(#paint2_linear_5969_4162)"/>
<path d="M866.978 1663.37C866.979 1591.78 888.41 1521.8 928.555 1462.3C968.7 1402.79 1025.75 1356.45 1092.48 1329.14C1159.21 1301.83 1232.61 1294.78 1303.38 1308.89C1374.16 1322.99 1439.11 1357.62 1490.02 1408.38C1540.93 1459.13 1575.5 1523.74 1589.35 1594C1603.21 1664.26 1595.71 1737.02 1567.83 1803.06C1539.94 1869.09 1492.91 1925.43 1432.71 1964.93C1372.5 2004.43 1301.83 2025.32 1229.64 2024.95C1133.28 2024.44 1041.04 1986.13 973.082 1918.37C905.123 1850.62 866.977 1758.94 866.978 1663.37ZM834.979 2297.16C946.824 2207.94 1086.11 2159.4 1229.64 2159.63C1373.32 2159.66 1512.7 2208.26 1624.8 2297.4C1736.89 2386.55 1815.01 2510.91 1846.26 2650C1849.32 2666.23 1848.76 2682.93 1844.64 2698.93C1840.51 2714.92 1832.92 2729.84 1822.39 2742.63C1811.86 2755.41 1798.64 2765.77 1783.65 2772.97C1768.67 2780.17 1752.28 2784.04 1735.63 2784.31H723.658C707.061 2784.09 690.717 2780.24 675.798 2773.03C660.879 2765.81 647.754 2755.41 637.363 2742.58C626.972 2729.74 619.569 2714.78 615.692 2698.78C611.815 2682.77 611.558 2666.11 614.935 2650C645.474 2510.9 723.133 2386.38 834.979 2297.16Z" stroke="url(#paint3_linear_5969_4162)" stroke-opacity="0.5" stroke-width="0.236249"/>
</g>
</g>
<defs>
<filter id="filter0_bi_5969_4162" x="-11.6018" y="373.5" width="4109.41" height="3339.11" filterUnits="userSpaceOnUse" color-interpolation-filters="sRGB">
<feFlood flood-opacity="0" result="BackgroundImageFix"/>
<feGaussianBlur in="BackgroundImageFix" stdDeviation="4.875"/>
<feComposite in2="SourceAlpha" operator="in" result="effect1_backgroundBlur_5969_4162"/>
<feBlend mode="normal" in="SourceGraphic" in2="effect1_backgroundBlur_5969_4162" result="shape"/>
<feColorMatrix in="SourceAlpha" type="matrix" values="0 0 0 0 0 0 0 0 0 0 0 0 0 0 0 0 0 0 127 0" result="hardAlpha"/>
<feOffset dy="1.625"/>
<feGaussianBlur stdDeviation="3.25"/>
<feComposite in2="hardAlpha" operator="arithmetic" k2="-1" k3="1"/>
<feColorMatrix type="matrix" values="0 0 0 0 1 0 0 0 0 1 0 0 0 0 1 0 0 0 0.4 0"/>
<feBlend mode="normal" in2="shape" result="effect2_innerShadow_5969_4162"/>
</filter>
<filter id="filter1_bd_5969_4162" x="594.743" y="1283.96" width="1271.3" height="1518.18" filterUnits="userSpaceOnUse" color-interpolation-filters="sRGB">
<feFlood flood-opacity="0" result="BackgroundImageFix"/>
<feGaussianBlur in="BackgroundImageFix" stdDeviation="8.85935"/>
<feComposite in2="SourceAlpha" operator="in" result="effect1_backgroundBlur_5969_4162"/>
<feColorMatrix in="SourceAlpha" type="matrix" values="0 0 0 0 0 0 0 0 0 0 0 0 0 0 0 0 0 0 127 0" result="hardAlpha"/>
<feOffset dy="2"/>
<feGaussianBlur stdDeviation="2.5"/>
<feColorMatrix type="matrix" values="0 0 0 0 0.995833 0 0 0 0 0.456424 0 0 0 0 0.611217 0 0 0 0.5 0"/>
<feBlend mode="normal" in2="effect1_backgroundBlur_5969_4162" result="effect2_dropShadow_5969_4162"/>
<feBlend mode="normal" in="SourceGraphic" in2="effect2_dropShadow_5969_4162" result="shape"/>
</filter>
<linearGradient id="paint0_linear_5969_4162" x1="-1.85182" y1="371.344" x2="4405.46" y2="3155.81" gradientUnits="userSpaceOnUse">
<stop stop-color="#A9E0FF"/>
<stop offset="1" stop-color="#115DA9"/>
</linearGradient>
<linearGradient id="paint1_linear_5969_4162" x1="125.958" y1="534.141" x2="4088.06" y2="534.141" gradientUnits="userSpaceOnUse">
<stop stop-color="#FFDB94"/>
<stop offset="1" stop-color="#FE749C"/>
</linearGradient>
<linearGradient id="paint2_linear_5969_4162" x1="1760.7" y1="1569.44" x2="383.623" y2="1606.86" gradientUnits="userSpaceOnUse">
<stop stop-color="white"/>
<stop offset="1" stop-color="white" stop-opacity="0.2"/>
</linearGradient>
<linearGradient id="paint3_linear_5969_4162" x1="745.591" y1="1799.07" x2="1795.02" y2="1803.9" gradientUnits="userSpaceOnUse">
<stop stop-color="white"/>
<stop offset="1" stop-color="white" stop-opacity="0"/>
</linearGradient>
<clipPath id="clip0_5969_4162">
<rect width="4088" height="4088" fill="white"/>
</clipPath>
</defs>
</svg>
