<svg width="4088" height="4088" viewBox="0 0 4088 4088" fill="none" xmlns="http://www.w3.org/2000/svg">
<g opacity="0.5">
<path d="M3270.4 1635.2C3721.95 1635.2 4088 1269.15 4088 817.6C4088 366.052 3721.95 0 3270.4 0C2818.85 0 2452.8 366.052 2452.8 817.6C2452.8 1269.15 2818.85 1635.2 3270.4 1635.2Z" fill="#A1A1A1"/>
<path opacity="0.5" d="M1615.48 3261.77C2281.92 3261.77 2822.17 2714.63 2822.17 2039.71C2822.17 1364.78 2281.92 817.648 1615.48 817.648C949.046 817.648 408.793 1364.78 408.793 2039.71C408.793 2714.63 949.046 3261.77 1615.48 3261.77Z" fill="#A1A1A1"/>
<g filter="url(#filter0_bi_5969_4188)">
<path d="M3949.16 2115.14C3949.16 1226.37 3153.84 532.015 2166.55 532.015C1919.73 504.241 1700.33 559.789 1508.36 615.338L1316.39 198.726C1288.96 115.404 1179.26 115.404 1124.41 198.726L740.468 1143.05C630.769 1281.92 521.07 1448.56 466.221 1615.21H246.823C109.699 1587.43 0 1698.53 0 1837.4V2059.59C0 2198.46 109.699 2309.56 246.823 2309.56H383.946C411.371 2559.52 521.07 2781.72 685.618 3003.91V3837.13C685.618 3920.45 740.468 3976 822.742 3976H1288.96C1371.24 3976 1426.09 3920.45 1426.09 3837.13V3559.39C1645.48 3642.71 1892.31 3698.26 2166.55 3698.26C2413.38 3698.26 2660.2 3642.71 2907.02 3559.39V3837.13C2907.02 3920.45 2961.87 3976 3044.15 3976H3510.37C3592.64 3976 3647.49 3920.45 3647.49 3837.13V3003.91C3812.04 2753.94 3949.16 2448.43 3949.16 2115.14Z" fill="#F1F1F1" fill-opacity="0.2"/>
<path d="M3949.16 2115.14C3949.16 1226.37 3153.84 532.015 2166.55 532.015C1919.73 504.241 1700.33 559.789 1508.36 615.338L1316.39 198.726C1288.96 115.404 1179.26 115.404 1124.41 198.726L740.468 1143.05C630.769 1281.92 521.07 1448.56 466.221 1615.21H246.823C109.699 1587.43 0 1698.53 0 1837.4V2059.59C0 2198.46 109.699 2309.56 246.823 2309.56H383.946C411.371 2559.52 521.07 2781.72 685.618 3003.91V3837.13C685.618 3920.45 740.468 3976 822.742 3976H1288.96C1371.24 3976 1426.09 3920.45 1426.09 3837.13V3559.39C1645.48 3642.71 1892.31 3698.26 2166.55 3698.26C2413.38 3698.26 2660.2 3642.71 2907.02 3559.39V3837.13C2907.02 3920.45 2961.87 3976 3044.15 3976H3510.37C3592.64 3976 3647.49 3920.45 3647.49 3837.13V3003.91C3812.04 2753.94 3949.16 2448.43 3949.16 2115.14Z" fill="url(#paint0_linear_5969_4188)" fill-opacity="0.8"/>
<path d="M2166.52 532.313L2166.54 532.315H2166.55C3153.72 532.315 3948.86 1226.57 3948.86 2115.14C3948.86 2448.35 3811.77 2753.8 3647.24 3003.74L3647.19 3003.82V3003.91V3837.13C3647.19 3878.73 3633.5 3913.36 3609.57 3937.6C3585.63 3961.84 3551.43 3975.7 3510.37 3975.7H3044.15C3003.08 3975.7 2968.88 3961.84 2944.94 3937.6C2921.01 3913.36 2907.32 3878.73 2907.32 3837.13V3559.39V3558.97L2906.93 3559.11C2660.12 3642.42 2413.33 3697.96 2166.55 3697.96C1892.35 3697.96 1645.56 3642.42 1426.19 3559.11L1425.79 3558.96V3559.39V3837.13C1425.79 3878.73 1412.1 3913.36 1388.16 3937.6C1364.23 3961.84 1330.03 3975.7 1288.96 3975.7H822.742C781.674 3975.7 747.474 3961.84 723.541 3937.6C699.608 3913.36 685.918 3878.73 685.918 3837.13V3003.91V3003.81L685.86 3003.73C521.33 2781.56 411.661 2559.42 384.245 2309.52L384.215 2309.26H383.946H246.823C109.868 2309.26 0.3 2198.3 0.3 2059.59V1837.4C0.3 1698.67 109.865 1587.77 246.763 1615.5L246.793 1615.51H246.823H466.221H466.438L466.506 1615.3C521.339 1448.7 631.013 1282.09 740.703 1143.23L740.73 1143.2L740.746 1143.16L1124.68 198.866C1152.06 157.298 1193.09 136.534 1230.69 136.534C1268.27 136.534 1302.43 157.291 1316.1 198.82L1316.11 198.836L1316.12 198.852L1508.09 615.463L1508.2 615.697L1508.44 615.626C1700.41 560.079 1919.76 504.546 2166.52 532.313Z" stroke="url(#paint1_linear_5969_4188)" stroke-opacity="0.1" stroke-width="0.6"/>
</g>
<path d="M1426.08 1757.58C1562.4 1757.58 1672.91 1645.66 1672.91 1507.61C1672.91 1369.56 1562.4 1257.64 1426.08 1257.64C1289.77 1257.64 1179.26 1369.56 1179.26 1507.61C1179.26 1645.66 1289.77 1757.58 1426.08 1757.58Z" fill="url(#paint2_linear_5969_4188)"/>
<path d="M1672.79 1507.61C1672.79 1645.6 1562.33 1757.46 1426.08 1757.46C1289.83 1757.46 1179.38 1645.6 1179.38 1507.61C1179.38 1369.62 1289.83 1257.76 1426.08 1257.76C1562.33 1257.76 1672.79 1369.62 1672.79 1507.61Z" stroke="url(#paint3_linear_5969_4188)" stroke-opacity="0.5" stroke-width="0.236249"/>
</g>
<defs>
<filter id="filter0_bi_5969_4188" x="-9.75" y="126.484" width="3968.66" height="3859.27" filterUnits="userSpaceOnUse" color-interpolation-filters="sRGB">
<feFlood flood-opacity="0" result="BackgroundImageFix"/>
<feGaussianBlur in="BackgroundImageFix" stdDeviation="4.875"/>
<feComposite in2="SourceAlpha" operator="in" result="effect1_backgroundBlur_5969_4188"/>
<feBlend mode="normal" in="SourceGraphic" in2="effect1_backgroundBlur_5969_4188" result="shape"/>
<feColorMatrix in="SourceAlpha" type="matrix" values="0 0 0 0 0 0 0 0 0 0 0 0 0 0 0 0 0 0 127 0" result="hardAlpha"/>
<feOffset dy="1.625"/>
<feGaussianBlur stdDeviation="3.25"/>
<feComposite in2="hardAlpha" operator="arithmetic" k2="-1" k3="1"/>
<feColorMatrix type="matrix" values="0 0 0 0 1 0 0 0 0 1 0 0 0 0 1 0 0 0 0.4 0"/>
<feBlend mode="normal" in2="shape" result="effect2_innerShadow_5969_4188"/>
</filter>
<linearGradient id="paint0_linear_5969_4188" x1="-1.5017e-05" y1="122.462" x2="4658.51" y2="2579.37" gradientUnits="userSpaceOnUse">
<stop stop-color="#A1A1A1"/>
<stop offset="0.607222"/>
</linearGradient>
<linearGradient id="paint1_linear_5969_4188" x1="123.411" y1="310.769" x2="3949.16" y2="310.769" gradientUnits="userSpaceOnUse">
<stop stop-color="#FFDB94"/>
<stop offset="1" stop-color="#FE749C"/>
</linearGradient>
<linearGradient id="paint2_linear_5969_4188" x1="1637.91" y1="1347.92" x2="1088.02" y2="1365.63" gradientUnits="userSpaceOnUse">
<stop stop-color="white"/>
<stop offset="1" stop-color="white" stop-opacity="0.2"/>
</linearGradient>
<linearGradient id="paint3_linear_5969_4188" x1="1232.44" y1="1425.35" x2="1651.61" y2="1427.63" gradientUnits="userSpaceOnUse">
<stop stop-color="white"/>
<stop offset="1" stop-color="white" stop-opacity="0"/>
</linearGradient>
</defs>
</svg>
