<svg width="4088" height="4088" viewBox="0 0 4088 4088" fill="none" xmlns="http://www.w3.org/2000/svg">
<g opacity="0.5">
<path d="M3073.31 1053.39C3099.26 824.838 3043.04 594.416 2915.21 405.436C2787.38 216.457 2596.74 81.9333 2379.13 27.1484C2161.52 -27.6366 1931.91 1.09047 1733.47 107.929C1535.03 214.768 1381.42 392.363 1301.51 607.334C1228.83 595.296 1154.3 606.228 1087.82 638.683C1021.33 671.138 966.021 723.583 929.22 789.061L170.854 2542.62C144.153 2595.67 129.468 2654.24 127.892 2713.94C126.316 2773.63 137.891 2832.93 161.755 2887.39C185.618 2941.85 221.151 2990.07 265.704 3028.45C310.256 3066.83 362.674 3094.38 419.046 3109.04L2717.11 3691.99C2773.05 3707.02 2831.59 3708.8 2888.29 3697.18C2945 3685.57 2998.39 3660.87 3044.43 3624.95C3090.48 3589.03 3127.96 3542.83 3154.07 3489.84C3180.17 3436.86 3194.21 3378.47 3195.11 3319.09L3321.5 1405.05C3321.08 1327.15 3296.91 1251.35 3252.4 1188.28C3207.89 1125.21 3145.26 1078.04 3073.31 1053.39V1053.39ZM1602.55 673.417C1652.85 527.361 1754.32 405.787 1887.18 332.412C2020.04 259.038 2174.75 239.126 2321.12 276.561C2467.5 313.996 2595.05 406.092 2678.89 534.885C2762.72 663.677 2796.84 819.925 2774.57 973.149L1602.55 673.417Z" fill="#A1A1A1"/>
<g filter="url(#filter0_bi_5969_4172)">
<path d="M3600.41 4088H1381.84C1327.28 4088.14 1273.4 4075.84 1224.31 4052.03C1175.22 4028.21 1132.19 3993.52 1098.52 3950.57C1064.84 3907.63 1041.4 3857.57 1029.97 3804.2C1018.54 3750.83 1019.41 3695.55 1032.54 3642.57L1337.69 1914.63C1359.66 1838.53 1406.68 1772.09 1471.13 1726.09C1535.58 1680.09 1613.67 1657.22 1692.74 1661.19H3289.51C3368.58 1657.22 3446.67 1680.09 3511.12 1726.09C3575.57 1772.09 3622.59 1838.53 3644.56 1914.63L3949.71 3642.57C3962.83 3695.55 3963.71 3750.83 3952.28 3804.2C3940.85 3857.57 3917.41 3907.63 3883.73 3950.57C3850.06 3993.52 3807.03 4028.21 3757.94 4052.03C3708.85 4075.84 3654.97 4088.14 3600.41 4088Z" fill="#F1F1F1" fill-opacity="0.2"/>
<path d="M3600.41 4088H1381.84C1327.28 4088.14 1273.4 4075.84 1224.31 4052.03C1175.22 4028.21 1132.19 3993.52 1098.52 3950.57C1064.84 3907.63 1041.4 3857.57 1029.97 3804.2C1018.54 3750.83 1019.41 3695.55 1032.54 3642.57L1337.69 1914.63C1359.66 1838.53 1406.68 1772.09 1471.13 1726.09C1535.58 1680.09 1613.67 1657.22 1692.74 1661.19H3289.51C3368.58 1657.22 3446.67 1680.09 3511.12 1726.09C3575.57 1772.09 3622.59 1838.53 3644.56 1914.63L3949.71 3642.57C3962.83 3695.55 3963.71 3750.83 3952.28 3804.2C3940.85 3857.57 3917.41 3907.63 3883.73 3950.57C3850.06 3993.52 3807.03 4028.21 3757.94 4052.03C3708.85 4075.84 3654.97 4088.14 3600.41 4088Z" fill="url(#paint0_linear_5969_4172)" fill-opacity="0.8"/>
<path d="M1032.84 3642.64L1032.84 3642.63L1032.84 3642.62L1337.98 1914.71C1337.98 1914.7 1337.99 1914.7 1337.99 1914.69C1359.93 1838.67 1406.92 1772.29 1471.31 1726.33C1535.7 1680.37 1613.72 1657.52 1692.73 1661.49L1692.74 1661.49H1692.74H3289.51H3289.51L3289.52 1661.49C3368.53 1657.52 3446.55 1680.37 3510.94 1726.33C3575.33 1772.29 3622.32 1838.67 3644.26 1914.69C3644.26 1914.7 3644.27 1914.7 3644.27 1914.71L3949.41 3642.62L3949.41 3642.63L3949.41 3642.64C3962.53 3695.58 3963.41 3750.81 3951.99 3804.13C3940.57 3857.46 3917.15 3907.48 3883.5 3950.39C3849.85 3993.29 3806.86 4027.96 3757.81 4051.76C3708.76 4075.55 3654.93 4087.84 3600.41 4087.7H1381.84C1327.32 4087.84 1273.49 4075.55 1224.44 4051.76C1175.39 4027.96 1132.4 3993.29 1098.75 3950.39C1065.1 3907.48 1041.68 3857.46 1030.26 3804.13C1018.84 3750.81 1019.72 3695.58 1032.84 3642.64Z" stroke="url(#paint1_linear_5969_4172)" stroke-opacity="0.1" stroke-width="0.6"/>
</g>
<g filter="url(#filter1_bd_5969_4172)">
<path d="M3183.1 1916.25C3146.55 1915.81 3111.62 1902.21 3085.77 1878.34C3059.92 1854.48 3045.19 1822.24 3044.71 1788.5C3044.71 1652.97 2986.38 1523 2882.57 1427.17C2778.75 1331.34 2637.94 1277.5 2491.12 1277.5C2344.31 1277.5 2203.5 1331.34 2099.68 1427.17C1995.87 1523 1937.54 1652.97 1937.54 1788.5C1937.54 1822.38 1922.96 1854.88 1897.01 1878.83C1871.05 1902.79 1835.85 1916.25 1799.15 1916.25C1762.44 1916.25 1727.24 1902.79 1701.28 1878.83C1675.33 1854.88 1660.75 1822.38 1660.75 1788.5C1660.75 1585.21 1748.24 1390.25 1903.96 1246.5C2059.69 1102.76 2270.9 1022 2491.12 1022C2711.35 1022 2922.56 1102.76 3078.29 1246.5C3234.01 1390.25 3321.5 1585.21 3321.5 1788.5C3321.5 1822.38 3306.92 1854.88 3280.97 1878.83C3255.01 1902.79 3219.81 1916.25 3183.1 1916.25Z" fill="url(#paint2_linear_5969_4172)"/>
<path d="M3183.11 1916.13C3146.58 1915.69 3111.68 1902.1 3085.85 1878.26C3060.02 1854.42 3045.3 1822.21 3044.83 1788.5C3044.83 1652.94 2986.49 1522.93 2882.65 1427.08C2778.81 1331.23 2637.97 1277.38 2491.12 1277.38C2344.28 1277.38 2203.44 1331.23 2099.6 1427.08C1995.76 1522.93 1937.42 1652.94 1937.42 1788.5C1937.42 1822.35 1922.86 1854.81 1896.93 1878.75C1871 1902.68 1835.82 1916.13 1799.15 1916.13C1762.47 1916.13 1727.3 1902.68 1701.36 1878.75C1675.43 1854.81 1660.87 1822.35 1660.87 1788.5C1660.87 1585.25 1748.34 1390.32 1904.04 1246.59C2059.74 1102.86 2270.92 1022.12 2491.12 1022.12C2711.33 1022.12 2922.51 1102.86 3078.21 1246.59C3233.91 1390.32 3321.38 1585.25 3321.38 1788.5C3321.38 1822.35 3306.82 1854.81 3280.89 1878.75C3254.95 1902.68 3219.78 1916.13 3183.11 1916.13Z" stroke="url(#paint3_linear_5969_4172)" stroke-opacity="0.5" stroke-width="0.236249"/>
</g>
</g>
<defs>
<filter id="filter0_bi_5969_4172" x="1012.25" y="1651" width="2957.75" height="2446.75" filterUnits="userSpaceOnUse" color-interpolation-filters="sRGB">
<feFlood flood-opacity="0" result="BackgroundImageFix"/>
<feGaussianBlur in="BackgroundImageFix" stdDeviation="4.875"/>
<feComposite in2="SourceAlpha" operator="in" result="effect1_backgroundBlur_5969_4172"/>
<feBlend mode="normal" in="SourceGraphic" in2="effect1_backgroundBlur_5969_4172" result="shape"/>
<feColorMatrix in="SourceAlpha" type="matrix" values="0 0 0 0 0 0 0 0 0 0 0 0 0 0 0 0 0 0 127 0" result="hardAlpha"/>
<feOffset dy="1.625"/>
<feGaussianBlur stdDeviation="3.25"/>
<feComposite in2="hardAlpha" operator="arithmetic" k2="-1" k3="1"/>
<feColorMatrix type="matrix" values="0 0 0 0 1 0 0 0 0 1 0 0 0 0 1 0 0 0 0.4 0"/>
<feBlend mode="normal" in2="shape" result="effect2_innerShadow_5969_4172"/>
</filter>
<filter id="filter1_bd_5969_4172" x="1643.03" y="1004.28" width="1696.19" height="929.687" filterUnits="userSpaceOnUse" color-interpolation-filters="sRGB">
<feFlood flood-opacity="0" result="BackgroundImageFix"/>
<feGaussianBlur in="BackgroundImageFix" stdDeviation="8.85935"/>
<feComposite in2="SourceAlpha" operator="in" result="effect1_backgroundBlur_5969_4172"/>
<feColorMatrix in="SourceAlpha" type="matrix" values="0 0 0 0 0 0 0 0 0 0 0 0 0 0 0 0 0 0 127 0" result="hardAlpha"/>
<feOffset dy="1.5"/>
<feGaussianBlur stdDeviation="2.5"/>
<feColorMatrix type="matrix" values="0 0 0 0 0.15375 0 0 0 0 0.522433 0 0 0 0 0.9 0 0 0 0.5 0"/>
<feBlend mode="normal" in2="effect1_backgroundBlur_5969_4172" result="effect2_dropShadow_5969_4172"/>
<feBlend mode="normal" in="SourceGraphic" in2="effect2_dropShadow_5969_4172" result="shape"/>
</filter>
<linearGradient id="paint0_linear_5969_4172" x1="1022" y1="1652.04" x2="4219.87" y2="3637.11" gradientUnits="userSpaceOnUse">
<stop stop-color="#A1A1A1"/>
<stop offset="1"/>
</linearGradient>
<linearGradient id="paint1_linear_5969_4172" x1="1113.82" y1="1771.08" x2="3960.25" y2="1771.08" gradientUnits="userSpaceOnUse">
<stop stop-color="#A1A1A1"/>
<stop offset="1"/>
</linearGradient>
<linearGradient id="paint2_linear_5969_4172" x1="2491.12" y1="1022" x2="2491.12" y2="1916.25" gradientUnits="userSpaceOnUse">
<stop/>
<stop offset="0.67" stop-color="#A1A1A1"/>
<stop offset="0.9999" stop-color="#A1A1A1"/>
<stop offset="1" stop-color="#FBFBFB"/>
</linearGradient>
<linearGradient id="paint3_linear_5969_4172" x1="1839.65" y1="1321.98" x2="3249.75" y2="1336.43" gradientUnits="userSpaceOnUse">
<stop stop-color="white"/>
<stop offset="1" stop-color="white" stop-opacity="0"/>
</linearGradient>
</defs>
</svg>
