<svg width="4217" height="4097" viewBox="0 0 4217 4097" fill="none" xmlns="http://www.w3.org/2000/svg">
<rect x="1716" width="2501" height="2501" rx="412" fill="#FFB831"/>
<rect y="2300" width="1797" height="1797" rx="297" fill="#FFB831"/>
<rect x="350" y="443" width="3339" height="3339" rx="579" fill="#F1F1F1" fill-opacity="0.2"/>
<rect x="350" y="443" width="3339" height="3339" rx="579" fill="url(#paint0_linear_5970_4691)" fill-opacity="0.8"/>
<path d="M1930.44 1602.41V1865.05C1931.13 1897.03 1922.14 1928.48 1904.66 1955.28C1887.18 1982.08 1862.02 2002.98 1832.47 2015.24C1812.84 2023.42 1791.79 2027.65 1770.53 2027.69H1507.39C1464.93 2027.69 1424.2 2010.92 1394.06 1981.02C1363.92 1951.13 1346.81 1910.53 1346.46 1868.08V1605.45C1346.44 1584.32 1350.58 1563.4 1358.67 1543.88C1366.75 1524.36 1378.6 1506.63 1393.56 1491.71C1408.51 1476.78 1426.26 1464.96 1445.8 1456.91C1465.33 1448.87 1486.26 1444.76 1507.39 1444.83H1770.53C1812.46 1445.08 1852.63 1461.7 1882.5 1491.13C1912.37 1520.56 1929.57 1560.49 1930.44 1602.41ZM1930.44 2360.97V2623.6C1930.49 2666.09 1913.68 2706.87 1883.7 2736.99C1853.72 2767.1 1813.02 2784.09 1770.53 2784.22H1507.39C1464.76 2784.22 1423.87 2767.31 1393.7 2737.19C1363.54 2707.08 1346.55 2666.23 1346.46 2623.6V2360.97C1346.68 2318.47 1363.74 2277.8 1393.91 2247.88C1424.08 2217.96 1464.89 2201.23 1507.39 2201.36H1770.53C1812.89 2201.36 1853.51 2218.17 1883.49 2248.09C1913.47 2278.01 1930.36 2318.61 1930.44 2360.97ZM2693.55 1602.41V1865.05C2694.15 1907.2 2678.14 1947.89 2648.97 1978.33C2619.8 2008.76 2579.83 2026.5 2537.69 2027.69H2275.56C2233.11 2027.69 2192.37 2010.92 2162.23 1981.02C2132.09 1951.13 2114.98 1910.53 2114.64 1868.08V1605.45C2114.61 1584.32 2118.76 1563.4 2126.84 1543.88C2134.92 1524.36 2146.78 1506.63 2161.73 1491.71C2176.68 1476.78 2194.43 1464.96 2213.97 1456.91C2233.5 1448.87 2254.43 1444.76 2275.56 1444.83H2537.69C2578.91 1446.12 2618.07 1463.19 2647.07 1492.51C2676.07 1521.83 2692.71 1561.17 2693.55 1602.41ZM2693.55 2362.99V2625.63C2693.62 2667.43 2677.37 2707.61 2648.26 2737.61C2619.14 2767.61 2579.47 2785.06 2537.69 2786.24H2275.56C2232.93 2786.24 2192.05 2769.33 2161.88 2739.22C2131.71 2709.11 2114.72 2668.25 2114.64 2625.63V2362.99C2114.88 2320.51 2131.95 2279.85 2162.11 2249.93C2192.28 2220.02 2233.07 2203.28 2275.56 2203.39H2537.69C2579.26 2204.69 2618.71 2222.04 2647.76 2251.8C2676.82 2281.55 2693.23 2321.4 2693.55 2362.99Z" fill="url(#paint1_linear_5970_4691)"/>
<path d="M2955.68 1879.22C2935.64 1878.95 2916.5 1870.89 2902.33 1856.73C2888.15 1842.57 2880.06 1823.44 2879.77 1803.41V1491.28C2880.5 1459.66 2874.77 1428.22 2862.93 1398.88C2851.1 1369.54 2833.41 1342.92 2810.95 1320.65C2766.48 1276.68 2706.49 1251.99 2643.95 1251.93H2335.27C2315.17 1251.93 2295.9 1243.96 2281.67 1229.77C2267.44 1215.57 2259.42 1196.32 2259.36 1176.22C2259.39 1156.11 2267.4 1136.83 2281.63 1122.61C2295.86 1108.4 2315.16 1100.42 2335.27 1100.42H2646.99C2749.55 1103 2846.98 1145.83 2918.23 1219.64C2954.28 1255.5 2982.85 1298.15 3002.31 1345.12C3021.77 1392.1 3031.72 1442.46 3031.58 1493.31V1805.44C3031.03 1825.2 3022.79 1843.96 3008.61 1857.74C2994.44 1871.52 2975.44 1879.22 2955.68 1879.22ZM2643.95 3124.58H2335.27C2315.17 3124.58 2295.9 3116.62 2281.67 3102.42C2267.44 3088.23 2259.42 3068.98 2259.36 3048.88C2259.39 3028.77 2267.4 3009.49 2281.63 2995.27C2295.86 2981.06 2315.16 2973.08 2335.27 2973.08H2646.99C2693.67 2972.7 2739.17 2958.43 2777.69 2932.07C2816.22 2905.72 2846.01 2868.48 2863.27 2825.11C2874.72 2796.38 2880.33 2765.65 2879.77 2734.73V2425.64C2879.8 2405.53 2887.81 2386.24 2902.04 2372.03C2916.27 2357.82 2935.56 2349.83 2955.68 2349.83C2975.79 2349.83 2995.08 2357.82 3009.31 2372.03C3023.55 2386.24 3031.56 2405.53 3031.58 2425.64V2734.73C3031.77 2811.36 3009.12 2886.32 2966.53 2950.02C2923.93 3013.73 2863.32 3063.3 2792.43 3092.4C2745.37 3111.73 2694.86 3121.75 2643.95 3121.55V3124.58ZM1707.78 3124.58H1396.06C1344.88 3124.55 1294.2 3114.43 1246.93 3094.81C1199.67 3075.18 1156.73 3046.44 1120.57 3010.22C1084.49 2974.04 1055.92 2931.08 1036.5 2883.82C1017.08 2836.56 1007.2 2785.93 1007.42 2734.83V2425.74C1007.44 2405.63 1015.45 2386.35 1029.68 2372.13C1043.92 2357.92 1063.21 2349.94 1083.32 2349.94C1103.44 2349.94 1122.73 2357.92 1136.96 2372.13C1151.19 2386.35 1159.2 2405.63 1159.23 2425.74V2734.83C1159.47 2797.43 1184.55 2857.37 1228.95 2901.49C1273.36 2945.61 1333.46 2970.3 1396.06 2970.14H1707.78C1727.89 2970.14 1747.18 2978.12 1761.42 2992.34C1775.65 3006.55 1783.66 3025.83 1783.68 3045.95C1783.7 3055.91 1781.74 3065.78 1777.93 3074.98C1774.12 3084.18 1768.52 3092.54 1761.47 3099.58C1754.41 3106.61 1746.04 3112.18 1736.83 3115.97C1727.61 3119.76 1717.74 3121.69 1707.78 3121.65V3124.58ZM1083.32 1879.22C1063.29 1878.95 1044.15 1870.89 1029.97 1856.73C1015.8 1842.57 1007.7 1823.44 1007.42 1803.41V1491.28C1007.68 1389.29 1048.46 1291.58 1120.77 1219.64C1193.76 1147.32 1292.3 1106.67 1395.04 1106.49H1706.77C1726.88 1106.49 1746.17 1114.47 1760.4 1128.69C1774.64 1142.9 1782.64 1162.18 1782.67 1182.3C1782.62 1202.39 1774.6 1221.65 1760.37 1235.84C1746.14 1250.03 1726.86 1258 1706.77 1258H1395.04C1332.44 1257.81 1272.32 1282.49 1227.91 1326.62C1183.5 1370.75 1158.43 1430.7 1158.22 1493.31V1805.44C1157.67 1825.02 1149.57 1843.64 1135.61 1857.39C1121.65 1871.14 1102.92 1878.96 1083.32 1879.22Z" fill="url(#paint2_linear_5970_4691)"/>
<defs>
<linearGradient id="paint0_linear_5970_4691" x1="350" y1="431.024" x2="4336.14" y2="2475.09" gradientUnits="userSpaceOnUse">
<stop stop-color="#A9E0FF"/>
<stop offset="1" stop-color="#115DA9"/>
</linearGradient>
<linearGradient id="paint1_linear_5970_4691" x1="2598.06" y1="1687.06" x2="1097.53" y2="1736.19" gradientUnits="userSpaceOnUse">
<stop stop-color="white"/>
<stop offset="1" stop-color="white" stop-opacity="0.2"/>
</linearGradient>
<linearGradient id="paint2_linear_5970_4691" x1="2888.07" y1="1465.94" x2="633.336" y2="1539.46" gradientUnits="userSpaceOnUse">
<stop stop-color="white"/>
<stop offset="1" stop-color="white" stop-opacity="0.2"/>
</linearGradient>
</defs>
</svg>
