<svg width="4088" height="4088" viewBox="0 0 4088 4088" fill="none" xmlns="http://www.w3.org/2000/svg">
<g clip-path="url(#clip0_5969_4176)">
<path d="M1402.72 4088C2177.42 4088 2805.44 3455.53 2805.44 2675.35C2805.44 1895.16 2177.42 1262.7 1402.72 1262.7C628.019 1262.7 0 1895.16 0 2675.35C0 3455.53 628.019 4088 1402.72 4088Z" fill="#FFB831"/>
<path d="M3129.88 1660.75C3447.37 1660.75 3704.75 1403.37 3704.75 1085.88C3704.75 768.38 3447.37 511 3129.88 511C2812.38 511 2555 768.38 2555 1085.88C2555 1403.37 2812.38 1660.75 3129.88 1660.75Z" fill="#FFB831"/>
<g filter="url(#filter0_bi_5969_4176)">
<path d="M2269.95 3667.1C3275.47 3667.1 4090.61 2846.19 4090.61 1833.55C4090.61 820.908 3275.47 0 2269.95 0C1264.42 0 449.284 820.908 449.284 1833.55C449.284 2846.19 1264.42 3667.1 2269.95 3667.1Z" fill="#F1F1F1" fill-opacity="0.2"/>
<path d="M2269.95 3667.1C3275.47 3667.1 4090.61 2846.19 4090.61 1833.55C4090.61 820.908 3275.47 0 2269.95 0C1264.42 0 449.284 820.908 449.284 1833.55C449.284 2846.19 1264.42 3667.1 2269.95 3667.1Z" fill="url(#paint0_linear_5969_4176)" fill-opacity="0.8"/>
<path d="M4090.31 1833.55C4090.31 2846.03 3275.3 3666.8 2269.95 3666.8C1264.59 3666.8 449.584 2846.03 449.584 1833.55C449.584 821.072 1264.59 0.3 2269.95 0.3C3275.3 0.3 4090.31 821.072 4090.31 1833.55Z" stroke="url(#paint1_linear_5969_4176)" stroke-opacity="0.1" stroke-width="0.6"/>
</g>
<g filter="url(#filter1_bd_5969_4176)">
<path d="M3129.35 1189.04L2677.45 807.603C2663.72 795.224 2646.69 787.178 2628.47 784.462C2610.25 781.746 2591.63 784.48 2574.94 792.326C2558.24 800.172 2544.21 812.782 2534.57 828.593C2524.93 844.403 2520.11 862.717 2520.72 881.26V1120.65H1517.66C1480.25 1120.65 1444.37 1135.61 1417.91 1162.25C1391.46 1188.89 1376.6 1225.03 1376.6 1262.7C1376.59 1300.62 1391.37 1337.03 1417.75 1364.09C1444.13 1391.15 1480.01 1406.7 1517.66 1407.39H2520.72V1646.77C2520.11 1665.32 2524.93 1683.63 2534.57 1699.44C2544.21 1715.25 2558.24 1727.86 2574.94 1735.71C2591.63 1743.55 2610.25 1746.29 2628.47 1743.57C2646.69 1740.86 2663.72 1732.81 2677.45 1720.43L3129.35 1338.99C3140.3 1329.86 3149.12 1318.4 3155.17 1305.44C3161.22 1292.48 3164.36 1278.34 3164.36 1264.02C3164.36 1249.7 3161.22 1235.55 3155.17 1222.59C3149.12 1209.63 3140.3 1198.18 3129.35 1189.04Z" fill="url(#paint2_linear_5969_4176)"/>
<path d="M2677.37 807.69L2677.37 807.693L3129.27 1189.13L3129.35 1189.04L3129.27 1189.13C3140.21 1198.26 3149.02 1209.7 3155.06 1222.64C3161.11 1235.59 3164.24 1249.71 3164.24 1264.02C3164.24 1278.32 3161.11 1292.45 3155.06 1305.39C3149.02 1318.34 3140.21 1329.78 3129.27 1338.9L3129.35 1338.99L3129.27 1338.9L2677.37 1720.34L2677.37 1720.34C2663.66 1732.71 2646.65 1740.74 2628.45 1743.46C2610.25 1746.17 2591.66 1743.44 2574.99 1735.6C2558.31 1727.77 2544.29 1715.17 2534.67 1699.38C2525.04 1683.59 2520.23 1665.3 2520.84 1646.78V1646.77V1407.39V1407.27H2520.72H1517.66C1480.04 1406.58 1444.2 1391.05 1417.84 1364.01C1391.48 1336.97 1376.71 1300.59 1376.72 1262.7C1376.72 1225.06 1391.57 1188.96 1418 1162.34C1444.43 1135.72 1480.28 1120.77 1517.66 1120.77H2520.72H2520.84V1120.65V881.26L2520.84 881.256C2520.23 862.736 2525.04 844.445 2534.67 828.654C2544.29 812.863 2558.31 800.269 2574.99 792.433C2591.66 784.597 2610.25 781.866 2628.45 784.578C2646.65 787.291 2663.66 795.327 2677.37 807.69Z" stroke="url(#paint3_linear_5969_4176)" stroke-opacity="0.5" stroke-width="0.236249"/>
</g>
<g filter="url(#filter2_bd_5969_4176)">
<path d="M1410.56 2472.79L1852.01 2870.02C1866.25 2881.4 1883.38 2888.5 1901.45 2890.52C1919.52 2892.53 1937.78 2889.38 1954.15 2881.41C1970.51 2873.44 1984.32 2860.99 1993.97 2845.48C2003.63 2829.97 2008.75 2812.03 2008.74 2793.73V2556.97H3011.8C3049.45 2556.28 3085.32 2540.74 3111.7 2513.68C3138.08 2486.62 3152.86 2450.21 3152.86 2412.29C3152.86 2374.61 3137.99 2338.48 3111.54 2311.84C3085.09 2285.2 3049.21 2270.23 3011.8 2270.23H2019.19V2030.85C2019.79 2012.3 2014.98 1993.99 2005.34 1978.18C1995.7 1962.37 1981.66 1949.76 1964.97 1941.91C1948.27 1934.07 1929.66 1931.33 1911.43 1934.05C1893.21 1936.76 1876.18 1944.81 1862.46 1957.19L1410.56 2338.63C1401.79 2347.43 1394.84 2357.88 1390.09 2369.39C1385.34 2380.91 1382.9 2393.25 1382.9 2405.71C1382.9 2418.18 1385.34 2430.52 1390.09 2442.03C1394.84 2453.54 1401.79 2463.99 1410.56 2472.79Z" fill="url(#paint4_linear_5969_4176)"/>
<path d="M2008.74 2556.85H2008.62V2556.97V2793.73C2008.63 2812.01 2003.52 2829.93 1993.87 2845.42C1984.23 2860.91 1970.44 2873.35 1954.1 2881.3C1937.75 2889.26 1919.51 2892.41 1901.46 2890.4C1883.42 2888.39 1866.31 2881.29 1852.09 2869.93C1852.08 2869.93 1852.08 2869.93 1852.08 2869.93L1410.64 2472.71C1410.64 2472.71 1410.64 2472.71 1410.64 2472.71C1401.88 2463.92 1394.94 2453.48 1390.2 2441.98C1385.46 2430.49 1383.02 2418.16 1383.02 2405.71C1383.02 2393.26 1385.46 2380.94 1390.2 2369.44C1394.94 2357.94 1401.88 2347.5 1410.64 2338.72C1410.64 2338.72 1410.64 2338.72 1410.64 2338.71L1862.53 1957.28L1862.54 1957.28C1876.24 1944.91 1893.25 1936.88 1911.45 1934.16C1929.65 1931.45 1948.24 1934.18 1964.92 1942.02C1981.59 1949.85 1995.61 1962.45 2005.24 1978.24C2014.86 1994.03 2019.67 2012.32 2019.07 2030.84V2030.85V2270.23V2270.35H2019.19H3011.8C3049.18 2270.35 3085.03 2285.3 3111.46 2311.92C3137.89 2338.54 3152.74 2374.64 3152.74 2412.29C3152.74 2450.18 3137.98 2486.56 3111.62 2513.59C3085.26 2540.63 3049.42 2556.16 3011.8 2556.85H2008.74Z" stroke="url(#paint5_linear_5969_4176)" stroke-opacity="0.5" stroke-width="0.236249"/>
</g>
</g>
<defs>
<filter id="filter0_bi_5969_4176" x="439.534" y="-9.75" width="3660.82" height="3686.6" filterUnits="userSpaceOnUse" color-interpolation-filters="sRGB">
<feFlood flood-opacity="0" result="BackgroundImageFix"/>
<feGaussianBlur in="BackgroundImageFix" stdDeviation="4.875"/>
<feComposite in2="SourceAlpha" operator="in" result="effect1_backgroundBlur_5969_4176"/>
<feBlend mode="normal" in="SourceGraphic" in2="effect1_backgroundBlur_5969_4176" result="shape"/>
<feColorMatrix in="SourceAlpha" type="matrix" values="0 0 0 0 0 0 0 0 0 0 0 0 0 0 0 0 0 0 127 0" result="hardAlpha"/>
<feOffset dy="1.625"/>
<feGaussianBlur stdDeviation="3.25"/>
<feComposite in2="hardAlpha" operator="arithmetic" k2="-1" k3="1"/>
<feColorMatrix type="matrix" values="0 0 0 0 1 0 0 0 0 1 0 0 0 0 1 0 0 0 0.4 0"/>
<feBlend mode="normal" in2="shape" result="effect2_innerShadow_5969_4176"/>
</filter>
<filter id="filter1_bd_5969_4176" x="1358.88" y="765.723" width="1823.2" height="996.59" filterUnits="userSpaceOnUse" color-interpolation-filters="sRGB">
<feFlood flood-opacity="0" result="BackgroundImageFix"/>
<feGaussianBlur in="BackgroundImageFix" stdDeviation="8.85935"/>
<feComposite in2="SourceAlpha" operator="in" result="effect1_backgroundBlur_5969_4176"/>
<feColorMatrix in="SourceAlpha" type="matrix" values="0 0 0 0 0 0 0 0 0 0 0 0 0 0 0 0 0 0 127 0" result="hardAlpha"/>
<feOffset dy="2"/>
<feGaussianBlur stdDeviation="2.5"/>
<feColorMatrix type="matrix" values="0 0 0 0 0.554167 0 0 0 0 0.626956 0 0 0 0 1 0 0 0 0.5 0"/>
<feBlend mode="normal" in2="effect1_backgroundBlur_5969_4176" result="effect2_dropShadow_5969_4176"/>
<feBlend mode="normal" in="SourceGraphic" in2="effect2_dropShadow_5969_4176" result="shape"/>
</filter>
<filter id="filter2_bd_5969_4176" x="1365.18" y="1915.31" width="1805.39" height="993.519" filterUnits="userSpaceOnUse" color-interpolation-filters="sRGB">
<feFlood flood-opacity="0" result="BackgroundImageFix"/>
<feGaussianBlur in="BackgroundImageFix" stdDeviation="8.85935"/>
<feComposite in2="SourceAlpha" operator="in" result="effect1_backgroundBlur_5969_4176"/>
<feColorMatrix in="SourceAlpha" type="matrix" values="0 0 0 0 0 0 0 0 0 0 0 0 0 0 0 0 0 0 127 0" result="hardAlpha"/>
<feOffset dy="2"/>
<feGaussianBlur stdDeviation="2.5"/>
<feColorMatrix type="matrix" values="0 0 0 0 0.554167 0 0 0 0 0.626956 0 0 0 0 1 0 0 0 0.5 0"/>
<feBlend mode="normal" in2="effect1_backgroundBlur_5969_4176" result="effect2_dropShadow_5969_4176"/>
<feBlend mode="normal" in="SourceGraphic" in2="effect2_dropShadow_5969_4176" result="shape"/>
</filter>
<linearGradient id="paint0_linear_5969_4176" x1="449.284" y1="-13.1528" x2="4809.06" y2="2206.79" gradientUnits="userSpaceOnUse">
<stop stop-color="#A9E0FF"/>
<stop offset="1" stop-color="#115DA9"/>
</linearGradient>
<linearGradient id="paint1_linear_5969_4176" x1="563.076" y1="166.686" x2="4090.61" y2="166.686" gradientUnits="userSpaceOnUse">
<stop stop-color="#A9E0FF"/>
<stop offset="1" stop-color="#8DA0FF"/>
</linearGradient>
<linearGradient id="paint2_linear_5969_4176" x1="3037.61" y1="957.006" x2="1051.4" y2="1077.46" gradientUnits="userSpaceOnUse">
<stop stop-color="white"/>
<stop offset="1" stop-color="white" stop-opacity="0.2"/>
</linearGradient>
<linearGradient id="paint3_linear_5969_4176" x1="1569.18" y1="1105.86" x2="3087.12" y2="1121.45" gradientUnits="userSpaceOnUse">
<stop stop-color="white"/>
<stop offset="1" stop-color="white" stop-opacity="0"/>
</linearGradient>
<linearGradient id="paint4_linear_5969_4176" x1="3027.37" y1="2106.04" x2="1060.84" y2="2224.49" gradientUnits="userSpaceOnUse">
<stop stop-color="white"/>
<stop offset="1" stop-color="white" stop-opacity="0.2"/>
</linearGradient>
<linearGradient id="paint5_linear_5969_4176" x1="1573.56" y1="2254.42" x2="3076.39" y2="2269.74" gradientUnits="userSpaceOnUse">
<stop stop-color="white"/>
<stop offset="1" stop-color="white" stop-opacity="0"/>
</linearGradient>
<clipPath id="clip0_5969_4176">
<rect width="4088" height="4088" fill="white"/>
</clipPath>
</defs>
</svg>
