<svg width="458" height="458" viewBox="0 0 458 458" fill="none" xmlns="http://www.w3.org/2000/svg">
<g clip-path="url(#clip0_5651_5877)">
<path d="M0 402.724V347.448H110.552V458H0V402.724ZM94.7586 402.724V363.241H15.7931V442.207H94.7586V402.724ZM31.5862 402.724V379.034H78.9655V426.414H31.5862V402.724ZM142.138 450.103V442.207H126.345V410.621H142.138V363.241H157.931V347.448H126.345V331.655H63.1724V315.862H78.9655V300.069H47.3793V331.655H31.5862V315.862H0V300.069H31.5862V268.483H15.7931V284.276H0V252.69H31.5862V268.483H47.3793V284.276H63.1724V268.483H78.9655V284.276H110.552V268.483H94.7586V252.69H47.3793V236.897H94.7586V221.103H47.3793V205.31H31.5862V221.103H0V173.724H15.7931V189.517H110.552V173.724H94.7586V157.931H63.1724V173.724H47.3793V157.931H15.7931V126.345H47.3793V157.931H63.1724V142.138H94.7586V126.345H110.552V142.138H94.7586V157.931H110.552V173.724H126.345V142.138H142.138V126.345H126.345V78.9655H157.931V94.7586H173.724V110.552H157.931V126.345H173.724V221.103H142.138V205.31H126.345V221.103H110.552V236.897H94.7586V252.69H110.552V268.483H126.345V284.276H157.931V268.483H142.138V252.69H126.345V236.897H157.931V268.483H173.724V236.897H189.517V268.483H205.31V221.103H221.103V205.31H236.897V221.103H221.103V236.897H236.897V252.69H284.276V236.897H268.483V221.103H252.69V189.517H236.897V173.724H252.69V157.931H268.483V142.138H252.69V126.345H236.897V157.931H221.103V142.138H205.31V157.931H189.517V142.138H205.31V126.345H189.517V78.9655H173.724V63.1724H189.517V78.9655H205.31V15.7931H221.103V47.3793H252.69V31.5862H236.897V0H268.483V15.7931H252.69V31.5862H284.276V15.7931H300.069V0H331.655V47.3793H300.069V31.5862H284.276V63.1724H300.069V110.552H315.862V94.7586H331.655V173.724H363.241V157.931H347.448V126.345H379.034V173.724H410.621V157.931H394.828V126.345H410.621V157.931H426.414V142.138H458V173.724H442.207V157.931H426.414V173.724H410.621V221.103H426.414V236.897H410.621V252.69H379.034V268.483H363.241V284.276H331.655V268.483H315.862V252.69H300.069V284.276H315.862V300.069H363.241V315.862H394.828V300.069H379.034V284.276H394.828V268.483H410.621V284.276H426.414V300.069H442.207V268.483H426.414V252.69H458V300.069H442.207V331.655H458V363.241H442.207V410.621H458V426.414H410.621V458H363.241V442.207H394.828V426.414H363.241V394.828H347.448V426.414H331.655V442.207H347.448V458H315.862V410.621H300.069V442.207H284.276V426.414H268.483V363.241H284.276V410.621H300.069V363.241H315.862V331.655H300.069V315.862H284.276V300.069H300.069V284.276H284.276V268.483H268.483V331.655H284.276V347.448H252.69V379.034H236.897V410.621H252.69V426.414H236.897V442.207H268.483V458H236.897V442.207H221.103V426.414H205.31V458H142.138V450.103ZM189.517 426.414V410.621H205.31V363.241H173.724V379.034H189.517V394.828H157.931V410.621H142.138V426.414H157.931V442.207H189.517V426.414ZM410.621 410.621V394.828H426.414V363.241H442.207V347.448H426.414V300.069H410.621V347.448H426.414V363.241H410.621V379.034H394.828V426.414H410.621V410.621ZM331.655 402.724V394.828H315.862V410.621H331.655V402.724ZM236.897 371.138V363.241H221.103V379.034H236.897V371.138ZM379.034 355.345V331.655H331.655V379.034H379.034V355.345ZM347.448 355.345V347.448H363.241V363.241H347.448V355.345ZM221.103 339.552V331.655H252.69V315.862H221.103V300.069H205.31V315.862H221.103V331.655H189.517V315.862H173.724V331.655H157.931V315.862H142.138V300.069H126.345V284.276H110.552V300.069H94.7586V315.862H110.552V300.069H126.345V315.862H142.138V331.655H157.931V347.448H221.103V339.552ZM173.724 292.172V284.276H157.931V300.069H173.724V292.172ZM252.69 284.276V268.483H221.103V284.276H236.897V300.069H252.69V284.276ZM347.448 260.586V252.69H331.655V268.483H347.448V260.586ZM379.034 244.793V236.897H394.828V189.517H379.034V205.31H363.241V221.103H347.448V205.31H315.862V189.517H300.069V173.724H315.862V126.345H300.069V110.552H284.276V94.7586H268.483V110.552H252.69V63.1724H268.483V78.9655H284.276V63.1724H268.483V47.3793H252.69V63.1724H236.897V110.552H252.69V126.345H268.483V110.552H284.276V157.931H268.483V173.724H252.69V189.517H268.483V221.103H284.276V205.31H315.862V221.103H331.655V236.897H363.241V252.69H379.034V244.793ZM363.241 229V221.103H379.034V236.897H363.241V229ZM110.552 213.207V205.31H126.345V189.517H110.552V205.31H94.7586V221.103H110.552V213.207ZM157.931 181.621V173.724H142.138V189.517H157.931V181.621ZM157.931 102.655V94.7586H142.138V110.552H157.931V102.655ZM221.103 94.7586V78.9655H205.31V110.552H221.103V94.7586ZM315.862 23.6897V15.7931H300.069V31.5862H315.862V23.6897ZM442.207 450.103V442.207H458V458H442.207V450.103ZM442.207 221.103V205.31H426.414V189.517H442.207V205.31H458V236.897H442.207V221.103ZM0 55.2759V0H110.552V110.552H0V55.2759ZM94.7586 55.2759V15.7931H15.7931V94.7586H94.7586V55.2759ZM31.5862 55.2759V31.5862H78.9655V78.9655H31.5862V55.2759ZM347.448 55.2759V0H458V110.552H347.448V55.2759ZM442.207 55.2759V15.7931H363.241V94.7586H442.207V55.2759ZM379.034 55.2759V31.5862H426.414V78.9655H379.034V55.2759ZM126.345 55.2759V47.3793H142.138V63.1724H126.345V55.2759ZM157.931 39.4828V31.5862H142.138V0H157.931V15.7931H173.724V0H189.517V15.7931H173.724V47.3793H157.931V39.4828Z" fill="black"/>
</g>
<defs>
<clipPath id="clip0_5651_5877">
<rect width="458" height="458" fill="white"/>
</clipPath>
</defs>
</svg>
