<svg width="20" height="21" viewBox="0 0 20 21" fill="none" xmlns="http://www.w3.org/2000/svg">
<path d="M17.3282 14.2453C16.8946 13.4984 16.2501 11.3852 16.2501 8.625C16.2501 6.9674 15.5916 5.37769 14.4195 4.20558C13.2474 3.03348 11.6577 2.375 10.0001 2.375C8.34247 2.375 6.75276 3.03348 5.58065 4.20558C4.40855 5.37769 3.75007 6.9674 3.75007 8.625C3.75007 11.3859 3.10476 13.4984 2.67116 14.2453C2.56044 14.4352 2.50174 14.6509 2.50098 14.8707C2.50023 15.0905 2.55745 15.3066 2.66687 15.4973C2.77629 15.6879 2.93404 15.8463 3.12422 15.9565C3.31439 16.0667 3.53027 16.1248 3.75007 16.125H6.93835C7.08255 16.8306 7.46603 17.4647 8.02393 17.9201C8.58182 18.3756 9.2799 18.6243 10.0001 18.6243C10.7202 18.6243 11.4183 18.3756 11.9762 17.9201C12.5341 17.4647 12.9176 16.8306 13.0618 16.125H16.2501C16.4698 16.1247 16.6856 16.0665 16.8757 15.9562C17.0657 15.846 17.2234 15.6875 17.3327 15.4969C17.442 15.3063 17.4992 15.0903 17.4984 14.8705C17.4976 14.6508 17.4389 14.4351 17.3282 14.2453ZM10.0001 17.375C9.61243 17.3749 9.23435 17.2546 8.91788 17.0308C8.60141 16.8069 8.3621 16.4905 8.23288 16.125H11.7673C11.638 16.4905 11.3987 16.8069 11.0823 17.0308C10.7658 17.2546 10.3877 17.3749 10.0001 17.375Z" fill="white"/>
</svg>
