<svg width="20" height="21" viewBox="0 0 20 21" fill="none" xmlns="http://www.w3.org/2000/svg">
<path d="M17.5 9.87491V17.3749C17.5 17.5407 17.4342 17.6996 17.3169 17.8169C17.1997 17.9341 17.0408 17.9999 16.875 17.9999H12.5C12.3342 17.9999 12.1753 17.9341 12.0581 17.8169C11.9408 17.6996 11.875 17.5407 11.875 17.3749V13.3124C11.875 13.2295 11.8421 13.15 11.7835 13.0914C11.7249 13.0328 11.6454 12.9999 11.5625 12.9999H8.4375C8.35462 12.9999 8.27513 13.0328 8.21653 13.0914C8.15792 13.15 8.125 13.2295 8.125 13.3124V17.3749C8.125 17.5407 8.05915 17.6996 7.94194 17.8169C7.82473 17.9341 7.66576 17.9999 7.5 17.9999H3.125C2.95924 17.9999 2.80027 17.9341 2.68306 17.8169C2.56585 17.6996 2.5 17.5407 2.5 17.3749V9.87491C2.50015 9.54345 2.63195 9.22562 2.86641 8.99132L9.11641 2.74132C9.3508 2.50707 9.66862 2.37549 10 2.37549C10.3314 2.37549 10.6492 2.50707 10.8836 2.74132L17.1336 8.99132C17.368 9.22562 17.4998 9.54345 17.5 9.87491Z" fill="white"/>
</svg>
