<svg width="28" height="28" viewBox="0 0 28 28" fill="none" xmlns="http://www.w3.org/2000/svg">
<path d="M13.935 17.5363L12.1675 19.3038L6.86255 14L12.1663 8.69629L13.9338 10.465L11.65 12.75H21.0713V15.25H11.65L13.935 17.5363Z" fill="#B3B3B3"/>
<path fill-rule="evenodd" clip-rule="evenodd" d="M4.2775 23.7225C-1.0925 18.3525 -1.0925 9.6475 4.2775 4.2775C9.6475 -1.0925 18.3525 -1.0925 23.7225 4.2775C29.0925 9.6475 29.0925 18.3525 23.7225 23.7225C18.3525 29.0925 9.6475 29.0925 4.2775 23.7225ZM6.045 21.955C3.9352 19.8452 2.74993 16.9837 2.74993 14C2.74993 11.0163 3.9352 8.1548 6.045 6.045C8.1548 3.9352 11.0163 2.74993 14 2.74993C16.9837 2.74993 19.8452 3.9352 21.955 6.045C24.0648 8.1548 25.2501 11.0163 25.2501 14C25.2501 16.9837 24.0648 19.8452 21.955 21.955C19.8452 24.0648 16.9837 25.2501 14 25.2501C11.0163 25.2501 8.1548 24.0648 6.045 21.955Z" fill="#B3B3B3"/>
</svg>
