<svg width="40" height="40" viewBox="0 0 40 40" fill="none" xmlns="http://www.w3.org/2000/svg">
<g clip-path="url(#clip0_4289_3461)">
<path d="M36.4853 3.75H8.51471C6.57359 3.75 5 5.32779 5 7.27409V28.9759C5 30.9222 6.57359 32.5 8.51471 32.5H36.4853C38.4264 32.5 40 30.9222 40 28.9759V7.27409C40 5.32779 38.4264 3.75 36.4853 3.75Z" fill="#115DA9"/>
<g filter="url(#filter0_bi_4289_3461)">
<path d="M34.937 8.31726H24.3438C23.9292 8.31681 23.5208 8.21723 23.1533 8.02692C22.7858 7.83661 22.47 7.56119 22.2326 7.22405L20.7567 5.09322C20.5205 4.75495 20.2049 4.4787 19.8371 4.28825C19.4694 4.09781 19.0604 3.99889 18.6455 4.00001H2.5596C1.88076 4.00001 1.22971 4.26745 0.749698 4.74351C0.269689 5.21957 0 5.86524 0 6.53848V31.4601C0 32.7918 0.533468 34.069 1.48297 35.0107C2.43248 35.9524 3.72029 36.4815 5.0631 36.4815H34.9557C36.2985 36.4815 37.5863 35.9524 38.5358 35.0107C39.4853 34.069 40.0187 32.7918 40.0187 31.4601V13.3387C40.0187 12.6777 39.8871 12.0232 39.6315 11.4128C39.3759 10.8023 39.0013 10.248 38.5292 9.78144C38.057 9.31492 37.4967 8.94542 36.8802 8.69417C36.2638 8.44291 35.6034 8.31482 34.937 8.31726Z" fill="#115DA9" fill-opacity="0.4"/>
</g>
<path d="M8.4819 16.2758C8.48191 15.5751 8.69167 14.8901 9.08461 14.3077C9.47754 13.7253 10.0359 13.2717 10.6891 13.0044C11.3422 12.7371 12.0607 12.6681 12.7534 12.8062C13.4461 12.9442 14.0819 13.2832 14.5802 13.78C15.0785 14.2768 15.4169 14.9091 15.5525 15.5968C15.688 16.2846 15.6147 16.9967 15.3417 17.6431C15.0688 18.2894 14.6085 18.8408 14.0192 19.2275C13.4299 19.6141 12.7382 19.8186 12.0316 19.8149C11.0885 19.81 10.1856 19.435 9.52043 18.7718C8.85526 18.1086 8.48188 17.2113 8.4819 16.2758ZM12.0316 21.1304C10.6269 21.1282 9.2638 21.6032 8.16922 22.4764C7.07464 23.3495 6.31462 24.5682 6.01575 25.9295C5.98267 26.0873 5.98518 26.2505 6.02316 26.4073C6.06114 26.5641 6.13365 26.7106 6.23543 26.8363C6.33721 26.962 6.46577 27.0639 6.6119 27.1346C6.75803 27.2052 6.91812 27.243 7.08068 27.245H16.9826C17.1456 27.2424 17.3062 27.2045 17.4529 27.134C17.5997 27.0635 17.7292 26.962 17.8324 26.8368C17.9356 26.7115 18.0099 26.5655 18.0503 26.4088C18.0907 26.2521 18.0961 26.0885 18.0662 25.9295C17.7603 24.5683 16.9958 23.3512 15.8988 22.4788C14.8018 21.6064 13.4378 21.1308 12.0316 21.1304Z" fill="url(#paint0_linear_4289_3461)"/>
<path d="M12.0314 21.2486H12.0316C13.4111 21.2489 14.7492 21.7155 15.8253 22.5712C16.9008 23.4265 17.6503 24.6194 17.9505 25.9533C17.9768 26.0946 17.9718 26.24 17.9359 26.3793C17.8999 26.5192 17.8334 26.6497 17.7412 26.7617C17.649 26.8737 17.5332 26.9644 17.4018 27.0275C17.2707 27.0905 17.1273 27.1244 16.9816 27.1269H7.08141C6.93639 27.1249 6.79362 27.0912 6.66333 27.0282C6.5328 26.9651 6.41804 26.8742 6.32724 26.762C6.23644 26.6498 6.1718 26.5192 6.13796 26.3795C6.10417 26.24 6.10189 26.0948 6.13125 25.9542C6.42437 24.6198 7.16953 23.425 8.24289 22.5687C9.31642 21.7123 10.6535 21.2464 12.0314 21.2486ZM8.60002 16.2758C8.60003 15.5987 8.80272 14.9367 9.18253 14.3738C9.56234 13.8108 10.1022 13.3723 10.7338 13.1138C11.3655 12.8552 12.0603 12.7885 12.7303 12.922C13.4003 13.0556 14.015 13.3833 14.4968 13.8636C14.9785 14.3439 15.3055 14.9551 15.4366 15.6197C15.5676 16.2843 15.4967 16.9725 15.2329 17.5971C14.9691 18.2218 14.5242 18.7548 13.9544 19.1287C13.3846 19.5026 12.7156 19.7003 12.0322 19.6968C11.12 19.692 10.2469 19.3293 9.60384 18.6881C8.96079 18.047 8.60001 17.1797 8.60002 16.2758Z" stroke="url(#paint1_linear_4289_3461)" stroke-opacity="0.5" stroke-width="0.236249"/>
</g>
<defs>
<filter id="filter0_bi_4289_3461" x="-9.75" y="-5.75" width="59.5188" height="51.9814" filterUnits="userSpaceOnUse" color-interpolation-filters="sRGB">
<feFlood flood-opacity="0" result="BackgroundImageFix"/>
<feGaussianBlur in="BackgroundImageFix" stdDeviation="4.875"/>
<feComposite in2="SourceAlpha" operator="in" result="effect1_backgroundBlur_4289_3461"/>
<feBlend mode="normal" in="SourceGraphic" in2="effect1_backgroundBlur_4289_3461" result="shape"/>
<feColorMatrix in="SourceAlpha" type="matrix" values="0 0 0 0 0 0 0 0 0 0 0 0 0 0 0 0 0 0 127 0" result="hardAlpha"/>
<feOffset dy="1.625"/>
<feGaussianBlur stdDeviation="3.25"/>
<feComposite in2="hardAlpha" operator="arithmetic" k2="-1" k3="1"/>
<feColorMatrix type="matrix" values="0 0 0 0 1 0 0 0 0 1 0 0 0 0 1 0 0 0 0.4 0"/>
<feBlend mode="normal" in2="shape" result="effect2_innerShadow_4289_3461"/>
</filter>
<linearGradient id="paint0_linear_4289_3461" x1="17.2279" y1="15.3567" x2="3.75355" y2="15.7229" gradientUnits="userSpaceOnUse">
<stop stop-color="white"/>
<stop offset="1" stop-color="white" stop-opacity="0.2"/>
</linearGradient>
<linearGradient id="paint1_linear_4289_3461" x1="7.29531" y1="17.6036" x2="17.5637" y2="17.6509" gradientUnits="userSpaceOnUse">
<stop stop-color="white"/>
<stop offset="1" stop-color="white" stop-opacity="0"/>
</linearGradient>
<clipPath id="clip0_4289_3461">
<rect width="40" height="40" fill="white"/>
</clipPath>
</defs>
</svg>
