<svg width="20" height="21" viewBox="0 0 20 21" fill="none" xmlns="http://www.w3.org/2000/svg">
<path d="M16.875 3.625H3.125C2.79348 3.625 2.47554 3.7567 2.24112 3.99112C2.0067 4.22554 1.875 4.54348 1.875 4.875V16.75C1.87506 16.8565 1.90234 16.9613 1.95426 17.0543C2.00618 17.1473 2.08101 17.2255 2.17165 17.2815C2.26228 17.3374 2.36572 17.3693 2.47214 17.374C2.57856 17.3788 2.68442 17.3563 2.77969 17.3086L5 16.1984L7.22031 17.3086C7.30714 17.352 7.4029 17.3747 7.5 17.3747C7.5971 17.3747 7.69286 17.352 7.77969 17.3086L10 16.1984L12.2203 17.3086C12.3071 17.352 12.4029 17.3747 12.5 17.3747C12.5971 17.3747 12.6929 17.352 12.7797 17.3086L15 16.1984L17.2203 17.3086C17.3156 17.3563 17.4214 17.3788 17.5279 17.374C17.6343 17.3693 17.7377 17.3374 17.8284 17.2815C17.919 17.2255 17.9938 17.1473 18.0457 17.0543C18.0977 16.9613 18.1249 16.8565 18.125 16.75V4.875C18.125 4.54348 17.9933 4.22554 17.7589 3.99112C17.5245 3.7567 17.2065 3.625 16.875 3.625ZM13.75 11.75H6.25C6.08424 11.75 5.92527 11.6842 5.80806 11.5669C5.69085 11.4497 5.625 11.2908 5.625 11.125C5.625 10.9592 5.69085 10.8003 5.80806 10.6831C5.92527 10.5658 6.08424 10.5 6.25 10.5H13.75C13.9158 10.5 14.0747 10.5658 14.1919 10.6831C14.3092 10.8003 14.375 10.9592 14.375 11.125C14.375 11.2908 14.3092 11.4497 14.1919 11.5669C14.0747 11.6842 13.9158 11.75 13.75 11.75ZM13.75 9.25H6.25C6.08424 9.25 5.92527 9.18415 5.80806 9.06694C5.69085 8.94973 5.625 8.79076 5.625 8.625C5.625 8.45924 5.69085 8.30027 5.80806 8.18306C5.92527 8.06585 6.08424 8 6.25 8H13.75C13.9158 8 14.0747 8.06585 14.1919 8.18306C14.3092 8.30027 14.375 8.45924 14.375 8.625C14.375 8.79076 14.3092 8.94973 14.1919 9.06694C14.0747 9.18415 13.9158 9.25 13.75 9.25Z" fill="white"/>
</svg>
