<svg width="20" height="21" viewBox="0 0 20 21" fill="none" xmlns="http://www.w3.org/2000/svg">
<path d="M18.0415 17.6877C17.9866 17.7827 17.9077 17.8616 17.8127 17.9165C17.7176 17.9713 17.6098 18.0002 17.5001 18.0002H2.50009C2.39044 18.0001 2.28274 17.9711 2.18782 17.9162C2.09289 17.8613 2.01409 17.7824 1.95931 17.6874C1.90453 17.5924 1.8757 17.4847 1.87573 17.375C1.87576 17.2654 1.90464 17.1576 1.95947 17.0627C3.14931 15.0056 4.9829 13.5306 7.12275 12.8314C6.06428 12.2013 5.24192 11.2412 4.78196 10.0984C4.32199 8.95573 4.24985 7.69361 4.57661 6.50592C4.90337 5.31823 5.61097 4.27064 6.59074 3.52402C7.57051 2.7774 8.76827 2.37305 10.0001 2.37305C11.2319 2.37305 12.4297 2.7774 13.4094 3.52402C14.3892 4.27064 15.0968 5.31823 15.4236 6.50592C15.7503 7.69361 15.6782 8.95573 15.2182 10.0984C14.7583 11.2412 13.9359 12.2013 12.8774 12.8314C15.0173 13.5306 16.8509 15.0056 18.0407 17.0627C18.0957 17.1576 18.1247 17.2654 18.1248 17.3751C18.125 17.4848 18.0962 17.5926 18.0415 17.6877Z" fill="white"/>
</svg>
